<?xml version="1.0" encoding="UTF-8" ?>
<svg version="1.1" width="16" height="16" xmlns="http://www.w3.org/2000/svg" shape-rendering="crispEdges">
<rect x="5" y="1" width="6" height="4" fill="#FC7F7F" />
<rect x="2" y="2" width="2" height="13" fill="#FC7F7F" />
<rect x="0" y="3" width="2" height="12" fill="#FC7F7F" />
<rect x="4" y="3" width="1" height="4" fill="#FC7F7F" />
<rect x="11" y="3" width="5" height="1" fill="#FC7F7F" />
<rect x="11" y="4" width="2" height="3" fill="#FC7F7F" />
<rect x="15" y="4" width="1" height="11" fill="#FC7F7F" />
<rect x="5" y="5" width="1" height="1" fill="#FC7F7F" />
<rect x="10" y="5" width="1" height="1" fill="#FC7F7F" />
<rect x="13" y="5" width="2" height="10" fill="#FC7F7F" />
<rect x="7" y="6" width="2" height="6" fill="#FC7F7F" />
<rect x="6" y="7" width="1" height="4" fill="#FC7F7F" />
<rect x="9" y="7" width="1" height="4" fill="#FC7F7F" />
<rect x="12" y="7" width="1" height="8" fill="#FC7F7F" />
<rect x="5" y="8" width="1" height="2" fill="#FC7F7F" />
<rect x="10" y="8" width="1" height="2" fill="#FC7F7F" />
<rect x="4" y="11" width="1" height="4" fill="#FC7F7F" />
<rect x="11" y="11" width="1" height="4" fill="#FC7F7F" />
<rect x="5" y="12" width="1" height="3" fill="#FC7F7F" />
<rect x="10" y="12" width="1" height="3" fill="#FC7F7F" />
<rect x="6" y="13" width="4" height="2" fill="#FC7F7F" />
</svg>